<svg xmlns="http://www.w3.org/2000/svg" width="96" height="96" viewBox="0 0 96 96" fill="none">
  <!-- Cute "clock + pin" mark (no gradients) -->
  <rect x="8" y="8" width="80" height="80" rx="24" fill="#FFFFFF"/>
  <rect x="8.75" y="8.75" width="78.5" height="78.5" rx="23.25" stroke="#E4E4E7" stroke-width="1.5"/>

  <!-- Pin -->
  <path d="M48 22c-9.2 0-16.7 7.4-16.7 16.6 0 12.1 16.7 30.4 16.7 30.4S64.7 50.7 64.7 38.6C64.7 29.4 57.2 22 48 22Z" fill="#6366F1" opacity="0.18"/>
  <path d="M48 24c-8.1 0-14.7 6.5-14.7 14.6 0 10.7 14.7 27 14.7 27s14.7-16.3 14.7-27C62.7 30.5 56.1 24 48 24Z" stroke="#6366F1" stroke-width="2"/>

  <!-- Clock face -->
  <circle cx="48" cy="38.5" r="10.5" fill="#FFFFFF" stroke="#6366F1" stroke-width="2"/>
  <path d="M48 33.5v5.5l4 2" stroke="#6366F1" stroke-width="2" stroke-linecap="round" stroke-linejoin="round"/>

  <!-- Cute cheeks -->
  <circle cx="40.5" cy="41.5" r="2" fill="#FCA5A5" opacity="0.9"/>
  <circle cx="55.5" cy="41.5" r="2" fill="#FCA5A5" opacity="0.9"/>

  <!-- 24 badge -->
  <rect x="58" y="18" width="22" height="14" rx="7" fill="#111827"/>
  <text x="69" y="28" text-anchor="middle" font-family="system-ui, -apple-system, Segoe UI, Roboto, sans-serif" font-size="9" font-weight="700" fill="#FFFFFF">24</text>
</svg>

