<?xml version="1.0" encoding="UTF-8"?>
<svg xmlns="http://www.w3.org/2000/svg" width="256" height="256" viewBox="0 0 256 256">
  <defs>
    <linearGradient id="g" x1="0" y1="0" x2="0" y2="1">
      <stop offset="0" stop-color="#6366f1"/>
      <stop offset="1" stop-color="#4f46e5"/>
    </linearGradient>
    <filter id="shadow" x="-20%" y="-20%" width="140%" height="140%">
      <feDropShadow dx="0" dy="6" stdDeviation="8" flood-color="#000000" flood-opacity="0.18"/>
    </filter>
  </defs>

  <!-- Rounded tile -->
  <rect x="28" y="28" width="200" height="200" rx="44" fill="#ffffff" filter="url(#shadow)"/>

  <!-- Wing mark (stylized) -->
  <g fill="url(#g)">
    <path d="M188 92c-18 0-33 7-46 22-9 10-19 23-32 38-5 6-10 11-15 16 24 5 49 1 71-13 20-13 33-32 36-55 1-5 1-6 1-8 0 0-6 0-15 0z"/>
    <path d="M90 176c18 3 35 1 52-5-9 15-24 26-45 33-12 4-24 6-36 6 8-8 18-19 29-34z" opacity="0.95"/>
    <path d="M76 148c14-2 27-8 38-18-7 15-18 27-33 35-9 5-18 8-28 10 7-7 15-16 23-27z" opacity="0.92"/>
    <path d="M66 124c10-1 19-5 27-11-5 11-13 20-24 26-6 3-12 5-18 6 5-6 10-13 15-21z" opacity="0.88"/>
  </g>
</svg>

